<svg width="73" height="19" viewBox="0 0 73 19" fill="none" xmlns="http://www.w3.org/2000/svg">
<path d="M14.3984 1.03125H10.8828L4.03906 12.2578V1.03125H0.523438V18.0938H4.03906L10.8945 6.84375V18.0938H14.3984V1.03125ZM30.3828 18.0938V6.85547C30.3828 4.98828 29.7969 3.51172 28.625 2.42578C27.4609 1.33984 25.8672 0.796875 23.8438 0.796875C21.8516 0.796875 20.2695 1.32422 19.0977 2.37891C17.9258 3.43359 17.3281 4.88281 17.3047 6.72656V18.0938H20.8203V6.83203C20.8203 5.71484 21.0859 4.89844 21.6172 4.38281C22.1562 3.875 22.8984 3.62109 23.8438 3.62109C25.8203 3.62109 26.8242 4.66016 26.8555 6.73828V18.0938H30.3828ZM37.8594 18.0938L42.2422 5.71875L46.6016 18.0938H51.2188V1.03125H47.6914V5.69531L48.043 13.7461L43.4375 1.03125H41.0234L36.4297 13.7344L36.7812 5.69531V1.03125H33.2656V18.0938H37.8594ZM58.8828 18.0938L63.2656 5.71875L67.625 18.0938H72.2422V1.03125H68.7148V5.69531L69.0664 13.7461L64.4609 1.03125H62.0469L57.4531 13.7344L57.8047 5.69531V1.03125H54.2891V18.0938H58.8828Z" fill="black"/>
</svg>
